<svg width="240" height="240" viewBox="0 0 240 240" fill="none" xmlns="http://www.w3.org/2000/svg">
    <defs>
        <filter id="filter0_f" x="50.2581" y="189.477" width="139.484" height="36.8276" filterUnits="userSpaceOnUse" color-interpolation-filters="sRGB">
            <feFlood flood-opacity="0" result="BackgroundImageFix"/>
            <feBlend mode="normal" in="SourceGraphic" in2="BackgroundImageFix" result="shape"/>
            <feGaussianBlur stdDeviation="7.44908" result="effect1_foregroundBlur"/>
        </filter>
        <filter id="filter1_f" x="42.7072" y="42.7072" width="154.586" height="154.161" filterUnits="userSpaceOnUse" color-interpolation-filters="sRGB">
            <feFlood flood-opacity="0" result="BackgroundImageFix"/>
            <feBlend mode="normal" in="SourceGraphic" in2="BackgroundImageFix" result="shape"/>
            <feGaussianBlur stdDeviation="3.72454" result="effect1_foregroundBlur"/>
        </filter>
        <radialGradient id="paint0_radial" cx="0" cy="0" r="1" gradientUnits="userSpaceOnUse" gradientTransform="translate(120 120) rotate(90) scale(120)">
            <stop stop-color="white"/>
            <stop offset="1" stop-color="#E0E9FD"/>
        </radialGradient>
        <linearGradient id="paint1_linear" x1="140.804" y1="72.4669" x2="96.5507" y2="172.239" gradientUnits="userSpaceOnUse">
            <stop stop-color="#FFD88B"/>
            <stop offset="1" stop-color="#FFA900"/>
        </linearGradient>
    </defs>
    <rect width="240" height="240" rx="120" fill="url(#paint0_radial)"/>
    <g filter="url(#filter0_f)">
        <path d="M174.844 207.891C174.844 209.832 150.289 211.406 120 211.406C89.7106 211.406 65.1562 209.832 65.1562 207.891C65.1562 205.949 89.7106 204.375 120 204.375C150.289 204.375 174.844 205.949 174.844 207.891Z" fill="black"/>
    </g>
    <path d="M171.959 120C171.959 148.93 148.601 172.383 119.788 172.383C90.9748 172.383 67.6172 148.93 67.6172 120C67.6172 91.0698 90.9748 67.6172 119.788 67.6172C148.601 67.6172 171.959 91.0698 171.959 120Z" fill="url(#paint1_linear)"/>
    <g filter="url(#filter1_f)">
        <path fill-rule="evenodd" clip-rule="evenodd" d="M120 188.95C158.316 188.95 189.375 157.984 189.375 119.788C189.375 81.5915 158.316 50.625 120 50.625C81.6839 50.625 50.625 81.5915 50.625 119.788C50.625 157.984 81.6839 188.95 120 188.95ZM120 189.419C158.574 189.419 189.844 158.244 189.844 119.788C189.844 81.3313 158.574 50.1562 120 50.1562C81.4264 50.1562 50.1562 81.3313 50.1562 119.788C50.1562 158.244 81.4264 189.419 120 189.419Z" fill="#FFD787"/>
    </g>
</svg>
